<mxfile host="app.diagrams.net" modified="2020-11-30T03:37:27.186Z" agent="5.0 (Windows NT 10.0; Win64; x64) AppleWebKit/537.36 (KHTML, like Gecko) Chrome/87.0.4280.66 Safari/537.36" etag="CuPDYckLCp3P9y2JrPFo" version="13.10.4" type="github">
  <diagram id="1DP2-O23yhii9DR-P9A2" name="Page-1">
    <mxGraphModel dx="1022" dy="478" grid="1" gridSize="10" guides="1" tooltips="1" connect="1" arrows="1" fold="1" page="1" pageScale="1" pageWidth="827" pageHeight="1169" math="0" shadow="0">
      <root>
        <mxCell id="0" />
        <mxCell id="1" parent="0" />
        <mxCell id="8ZEX8pKeNheUIEek38fP-1" value="API/Conroller Layer" style="rounded=0;whiteSpace=wrap;html=1;" vertex="1" parent="1">
          <mxGeometry x="140" y="160" width="550" height="60" as="geometry" />
        </mxCell>
        <mxCell id="8ZEX8pKeNheUIEek38fP-2" value="Serive layer" style="rounded=0;whiteSpace=wrap;html=1;" vertex="1" parent="1">
          <mxGeometry x="140" y="260" width="550" height="60" as="geometry" />
        </mxCell>
        <mxCell id="8ZEX8pKeNheUIEek38fP-3" value="Data Access layer" style="rounded=0;whiteSpace=wrap;html=1;" vertex="1" parent="1">
          <mxGeometry x="140" y="350" width="550" height="60" as="geometry" />
        </mxCell>
        <mxCell id="8ZEX8pKeNheUIEek38fP-4" value="Actor" style="shape=umlActor;verticalLabelPosition=bottom;verticalAlign=top;html=1;outlineConnect=0;" vertex="1" parent="1">
          <mxGeometry x="400" y="40" width="30" height="60" as="geometry" />
        </mxCell>
        <mxCell id="8ZEX8pKeNheUIEek38fP-5" value="Spring Boot 2.0&lt;br&gt;&lt;br&gt;React" style="ellipse;whiteSpace=wrap;html=1;" vertex="1" parent="1">
          <mxGeometry x="20" y="20" width="120" height="80" as="geometry" />
        </mxCell>
        <mxCell id="8ZEX8pKeNheUIEek38fP-6" value="Request" style="rounded=1;whiteSpace=wrap;html=1;fillColor=#dae8fc;strokeColor=#6c8ebf;" vertex="1" parent="1">
          <mxGeometry x="372.5" y="100" width="85" height="30" as="geometry" />
        </mxCell>
        <mxCell id="8ZEX8pKeNheUIEek38fP-7" value="Response" style="rounded=1;whiteSpace=wrap;html=1;fillColor=#d5e8d4;strokeColor=#82b366;" vertex="1" parent="1">
          <mxGeometry x="490" y="70" width="110" height="30" as="geometry" />
        </mxCell>
        <mxCell id="8ZEX8pKeNheUIEek38fP-8" value="" style="shape=cylinder3;whiteSpace=wrap;html=1;boundedLbl=1;backgroundOutline=1;size=15;" vertex="1" parent="1">
          <mxGeometry x="384" y="460" width="60" height="80" as="geometry" />
        </mxCell>
        <mxCell id="8ZEX8pKeNheUIEek38fP-9" value="" style="endArrow=classic;html=1;exitX=0.5;exitY=1;exitDx=0;exitDy=0;" edge="1" parent="1" source="8ZEX8pKeNheUIEek38fP-6" target="8ZEX8pKeNheUIEek38fP-1">
          <mxGeometry width="50" height="50" relative="1" as="geometry">
            <mxPoint x="380" y="190" as="sourcePoint" />
            <mxPoint x="430" y="140" as="targetPoint" />
          </mxGeometry>
        </mxCell>
        <mxCell id="8ZEX8pKeNheUIEek38fP-10" value="" style="endArrow=classic;html=1;exitX=0.5;exitY=1;exitDx=0;exitDy=0;" edge="1" parent="1" source="8ZEX8pKeNheUIEek38fP-1" target="8ZEX8pKeNheUIEek38fP-2">
          <mxGeometry width="50" height="50" relative="1" as="geometry">
            <mxPoint x="392.5" y="150" as="sourcePoint" />
            <mxPoint x="392.29999999999995" y="170" as="targetPoint" />
          </mxGeometry>
        </mxCell>
        <mxCell id="8ZEX8pKeNheUIEek38fP-11" value="" style="endArrow=classic;html=1;exitX=0.5;exitY=1;exitDx=0;exitDy=0;entryX=0.5;entryY=0;entryDx=0;entryDy=0;" edge="1" parent="1" source="8ZEX8pKeNheUIEek38fP-2" target="8ZEX8pKeNheUIEek38fP-3">
          <mxGeometry width="50" height="50" relative="1" as="geometry">
            <mxPoint x="392" y="230" as="sourcePoint" />
            <mxPoint x="392" y="270" as="targetPoint" />
          </mxGeometry>
        </mxCell>
        <mxCell id="8ZEX8pKeNheUIEek38fP-12" value="" style="endArrow=classic;html=1;exitX=0.5;exitY=1;exitDx=0;exitDy=0;entryX=0.5;entryY=0;entryDx=0;entryDy=0;entryPerimeter=0;" edge="1" parent="1" source="8ZEX8pKeNheUIEek38fP-3" target="8ZEX8pKeNheUIEek38fP-8">
          <mxGeometry width="50" height="50" relative="1" as="geometry">
            <mxPoint x="402" y="240" as="sourcePoint" />
            <mxPoint x="402" y="280" as="targetPoint" />
          </mxGeometry>
        </mxCell>
        <mxCell id="8ZEX8pKeNheUIEek38fP-13" value="" style="endArrow=classic;html=1;entryX=0.75;entryY=1;entryDx=0;entryDy=0;" edge="1" parent="1" target="8ZEX8pKeNheUIEek38fP-3">
          <mxGeometry width="50" height="50" relative="1" as="geometry">
            <mxPoint x="444" y="520" as="sourcePoint" />
            <mxPoint x="460" y="490" as="targetPoint" />
            <Array as="points">
              <mxPoint x="553" y="520" />
            </Array>
          </mxGeometry>
        </mxCell>
        <mxCell id="8ZEX8pKeNheUIEek38fP-16" value="" style="endArrow=classic;html=1;exitX=0.75;exitY=0;exitDx=0;exitDy=0;entryX=0.75;entryY=1;entryDx=0;entryDy=0;" edge="1" parent="1" source="8ZEX8pKeNheUIEek38fP-3" target="8ZEX8pKeNheUIEek38fP-2">
          <mxGeometry width="50" height="50" relative="1" as="geometry">
            <mxPoint x="380" y="330" as="sourcePoint" />
            <mxPoint x="430" y="280" as="targetPoint" />
          </mxGeometry>
        </mxCell>
        <mxCell id="8ZEX8pKeNheUIEek38fP-17" value="" style="endArrow=classic;html=1;exitX=0.75;exitY=0;exitDx=0;exitDy=0;entryX=0.75;entryY=1;entryDx=0;entryDy=0;" edge="1" parent="1" source="8ZEX8pKeNheUIEek38fP-2" target="8ZEX8pKeNheUIEek38fP-1">
          <mxGeometry width="50" height="50" relative="1" as="geometry">
            <mxPoint x="570" y="270" as="sourcePoint" />
            <mxPoint x="620" y="220" as="targetPoint" />
          </mxGeometry>
        </mxCell>
        <mxCell id="8ZEX8pKeNheUIEek38fP-18" value="" style="endArrow=classic;html=1;exitX=0.75;exitY=0;exitDx=0;exitDy=0;entryX=0.582;entryY=1;entryDx=0;entryDy=0;entryPerimeter=0;" edge="1" parent="1" source="8ZEX8pKeNheUIEek38fP-1" target="8ZEX8pKeNheUIEek38fP-7">
          <mxGeometry width="50" height="50" relative="1" as="geometry">
            <mxPoint x="550" y="200" as="sourcePoint" />
            <mxPoint x="600" y="150" as="targetPoint" />
          </mxGeometry>
        </mxCell>
        <mxCell id="8ZEX8pKeNheUIEek38fP-19" value="HTTPï¼šPost/Get/Del/Put" style="rounded=1;whiteSpace=wrap;html=1;fillColor=#fff2cc;strokeColor=#d6b656;" vertex="1" parent="1">
          <mxGeometry x="160" y="140" width="180" height="40" as="geometry" />
        </mxCell>
        <mxCell id="8ZEX8pKeNheUIEek38fP-21" value="Business Logic" style="rounded=1;whiteSpace=wrap;html=1;fillColor=#fff2cc;strokeColor=#d6b656;" vertex="1" parent="1">
          <mxGeometry x="160" y="240" width="180" height="40" as="geometry" />
        </mxCell>
        <mxCell id="8ZEX8pKeNheUIEek38fP-23" value="DataBase" style="rounded=1;whiteSpace=wrap;html=1;fillColor=#fff2cc;strokeColor=#d6b656;" vertex="1" parent="1">
          <mxGeometry x="160" y="330" width="190" height="40" as="geometry" />
        </mxCell>
      </root>
    </mxGraphModel>
  </diagram>
</mxfile>
